<mxfile host="app.diagrams.net" modified="2021-05-07T07:54:28.911Z" agent="5.0 (Windows NT 10.0; Win64; x64) AppleWebKit/537.36 (KHTML, like Gecko) Chrome/90.0.4430.93 Safari/537.36" etag="z5O9UYAjNlRhLLfsE0Df" version="14.6.10" type="github">
  <diagram name="Page-1" id="c9db0220-8083-56f3-ca83-edcdcd058819">
    <mxGraphModel dx="1234" dy="437" grid="0" gridSize="10" guides="1" tooltips="1" connect="1" arrows="1" fold="1" page="1" pageScale="1.5" pageWidth="826" pageHeight="1169" background="#ffffff" math="0" shadow="0">
      <root>
        <mxCell id="0" style=";html=1;" />
        <mxCell id="1" style=";html=1;" parent="0" />
        <mxCell id="3d76a8aef4d5c911-1" value="" style="html=1;shadow=0;dashed=0;shape=mxgraph.bootstrap.rect;whiteSpace=wrap;rounded=0;fontSize=12;align=center;fontColor=#ffffff;fillColor=#55BFE0;strokeColor=#55BFE0;" parent="1" vertex="1">
          <mxGeometry y="63" width="1035" height="32" as="geometry" />
        </mxCell>
        <mxCell id="3d76a8aef4d5c911-2" value="LOGO" style="html=1;shadow=0;dashed=0;fillColor=none;strokeColor=none;shape=mxgraph.bootstrap.rect;fontSize=14;whiteSpace=wrap;fontColor=#FFFFFF;fontStyle=1" parent="3d76a8aef4d5c911-1" vertex="1">
          <mxGeometry width="103.5" height="32" as="geometry" />
        </mxCell>
        <mxCell id="3d76a8aef4d5c911-8" value="ARTICLE TOPIC" style="html=1;shadow=0;dashed=0;fillColor=none;strokeColor=none;shape=mxgraph.bootstrap.rect;whiteSpace=wrap;fontColor=#FFFFFF;fontStyle=1" parent="3d76a8aef4d5c911-1" vertex="1">
          <mxGeometry x="300.6" y="1.6" width="412.317" height="32" as="geometry" />
        </mxCell>
        <mxCell id="3d76a8aef4d5c911-9" value="Profile" style="html=1;shadow=0;dashed=0;fillColor=none;strokeColor=none;shape=mxgraph.bootstrap.rect;whiteSpace=wrap;fontColor=#FFFFFF;fontStyle=1" parent="3d76a8aef4d5c911-1" vertex="1">
          <mxGeometry x="829.575" width="90.5625" height="32" as="geometry" />
        </mxCell>
        <mxCell id="3d76a8aef4d5c911-10" value="Log Out" style="html=1;shadow=0;dashed=0;fillColor=none;strokeColor=none;shape=mxgraph.bootstrap.rect;whiteSpace=wrap;fontColor=#FFFFFF;fontStyle=1" parent="3d76a8aef4d5c911-1" vertex="1">
          <mxGeometry x="944.4375" width="90.5625" height="32" as="geometry" />
        </mxCell>
        <mxCell id="3d76a8aef4d5c911-18" value="WRITERS&#39;S&amp;nbsp; NAME &lt;br&gt;AND &lt;br&gt;PROFILE PICTURE" style="html=1;shadow=0;dashed=0;shape=mxgraph.bootstrap.rrect;rSize=5;strokeColor=#dddddd;;align=left;spacingLeft=10;fontSize=16;whiteSpace=wrap;rounded=0;" parent="1" vertex="1">
          <mxGeometry x="40" y="130" width="195" height="72" as="geometry" />
        </mxCell>
        <mxCell id="3d76a8aef4d5c911-21" value="Insert System Variable" style="html=1;shadow=0;dashed=0;shape=mxgraph.bootstrap.rect;strokeColor=none;fillColor=none;align=right;fontSize=10;whiteSpace=wrap;rounded=0;" parent="1" vertex="1">
          <mxGeometry x="690" y="210" width="120" height="20" as="geometry" />
        </mxCell>
        <mxCell id="3d76a8aef4d5c911-22" value="" style="shape=triangle;strokeColor=none;fillColor=#000000;direction=south;rounded=0;shadow=1;fontSize=12;fontColor=#000000;align=center;html=1;" parent="1" vertex="1">
          <mxGeometry x="812" y="217" width="8" height="4" as="geometry" />
        </mxCell>
        <mxCell id="3d76a8aef4d5c911-23" value="PICTURES" style="html=1;shadow=0;dashed=0;shape=mxgraph.bootstrap.rect;strokeColor=none;fillColor=none;fontColor=#999999;align=left;spacingLeft=5;whiteSpace=wrap;rounded=0;" parent="1" vertex="1">
          <mxGeometry x="41" y="251" width="199" height="201" as="geometry" />
        </mxCell>
        <mxCell id="3d76a8aef4d5c911-24" value="&lt;font style=&quot;font-size: 36px&quot;&gt;&lt;br&gt;&lt;br&gt;&lt;br&gt;CONTENT&lt;/font&gt;" style="html=1;shadow=0;dashed=0;shape=mxgraph.bootstrap.rrect;rSize=5;fontSize=12;strokeColor=#dddddd;align=center;spacing=10;verticalAlign=top;whiteSpace=wrap;rounded=0;" parent="1" vertex="1">
          <mxGeometry x="255" y="108" width="596" height="445" as="geometry" />
        </mxCell>
        <mxCell id="3d76a8aef4d5c911-28" value="COMMENT" style="html=1;shadow=0;dashed=0;shape=mxgraph.bootstrap.rect;strokeColor=none;fillColor=none;fontColor=#999999;align=left;spacingLeft=5;whiteSpace=wrap;rounded=0;" parent="1" vertex="1">
          <mxGeometry x="40" y="570" width="200" height="20" as="geometry" />
        </mxCell>
        <mxCell id="3d76a8aef4d5c911-29" value="" style="html=1;shadow=0;dashed=0;shape=mxgraph.bootstrap.rrect;rSize=5;strokeColor=#dddddd;align=left;spacingLeft=10;fontSize=16;whiteSpace=wrap;rounded=0;" parent="1" vertex="1">
          <mxGeometry x="40" y="590" width="814" height="40" as="geometry" />
        </mxCell>
        <mxCell id="3d76a8aef4d5c911-33" value="" style="shape=triangle;strokeColor=none;fillColor=#000000;direction=south;rounded=0;shadow=1;fontSize=12;fontColor=#000000;align=center;html=1;" parent="1" vertex="1">
          <mxGeometry x="820" y="607" width="10" height="5" as="geometry" />
        </mxCell>
        <mxCell id="3d76a8aef4d5c911-44" value="SAVE" style="html=1;shadow=0;dashed=0;shape=mxgraph.bootstrap.rrect;align=center;rSize=3;strokeColor=none;fontColor=#ffffff;fontStyle=1;fontSize=10;whiteSpace=wrap;rounded=0;fillColor=#55BFE0;" parent="1" vertex="1">
          <mxGeometry x="794" y="645" width="57" height="34" as="geometry" />
        </mxCell>
        <mxCell id="3d76a8aef4d5c911-52" value="Cancel" style="html=1;shadow=0;dashed=0;shape=mxgraph.bootstrap.rrect;align=center;rSize=5;fontSize=14;whiteSpace=wrap;rounded=0;fontStyle=1;fontColor=#ffffff;fillColor=#55BFE0;strokeColor=#55BFE0;" parent="1" vertex="1">
          <mxGeometry x="719" y="645" width="58" height="33" as="geometry" />
        </mxCell>
      </root>
    </mxGraphModel>
  </diagram>
</mxfile>
